<svg width="300" height="300" viewBox="0 0 300 300" fill="none" xmlns="http://www.w3.org/2000/svg">
<g clip-path="url(#clip0_293_106)">
<path d="M197.36 219.52C236.068 224.137 271.19 196.501 275.807 157.793C280.424 119.085 252.787 83.9627 214.079 79.3457C175.371 74.7287 140.249 102.365 135.632 141.073C131.015 179.781 158.652 214.903 197.36 219.52Z" fill="#2775C9"/>
<path d="M198.616 199.677C170.187 196.287 149.894 170.497 153.285 142.068C156.676 113.639 182.465 93.3459 210.894 96.7368C239.323 100.128 259.616 125.917 256.225 154.346C254.597 167.997 247.613 180.442 236.809 188.943C226.005 197.444 212.267 201.306 198.616 199.677ZM203.967 128.743C201.134 128.546 198.33 129.416 196.106 131.181C193.881 132.946 192.397 135.479 191.944 138.282C191.312 143.583 194.141 147.43 200.845 149.696L205.528 151.409C210.085 153.063 211.824 154.87 211.505 157.542C211.186 160.214 207.5 162.44 203.12 161.918C201.547 161.875 200.018 161.39 198.707 160.519C197.397 159.648 196.358 158.425 195.71 156.991C195.531 156.455 195.205 155.981 194.768 155.622C194.332 155.263 193.803 155.035 193.242 154.964L190.657 154.656C190.454 154.669 190.256 154.722 190.073 154.812C189.891 154.902 189.728 155.028 189.594 155.181C189.46 155.334 189.358 155.513 189.293 155.706C189.228 155.899 189.202 156.103 189.217 156.306C189.54 158.95 190.731 161.413 192.603 163.308C194.475 165.204 196.923 166.425 199.563 166.781L199.124 170.46C199.026 171.279 199.258 172.104 199.768 172.752C200.278 173.4 201.025 173.819 201.844 173.917C202.663 174.014 203.487 173.783 204.135 173.273C204.784 172.763 205.203 172.016 205.3 171.197L205.745 167.474C208.74 167.796 211.742 166.937 214.113 165.079C216.484 163.221 218.036 160.511 218.438 157.525C219.102 151.962 216.285 148.383 208.9 145.858L204.635 144.372C200.385 142.754 198.499 141.063 198.791 138.61C199.084 136.157 202.036 133.755 206.416 134.277C207.813 134.298 209.174 134.722 210.335 135.499C211.496 136.276 212.407 137.373 212.958 138.656C213.168 139.289 213.553 139.85 214.069 140.273C214.585 140.697 215.21 140.965 215.872 141.047L217.931 141.293C218.412 141.234 218.852 140.989 219.155 140.61C219.457 140.23 219.599 139.748 219.55 139.265C219.239 136.822 218.165 134.539 216.481 132.743C214.796 130.946 212.587 129.727 210.169 129.26L210.53 126.238C210.627 125.419 210.396 124.594 209.886 123.946C209.376 123.298 208.629 122.879 207.81 122.781C206.991 122.684 206.167 122.915 205.518 123.425C204.87 123.935 204.451 124.682 204.353 125.501L203.967 128.743ZM166.163 143.604C165.206 151.674 166.808 159.84 170.743 166.95C174.678 174.06 180.747 179.754 188.094 183.228L188.707 183.301C189.23 183.364 189.756 183.216 190.17 182.89C190.583 182.565 190.851 182.088 190.913 181.565L191.023 180.645C191.122 179.83 190.976 179.004 190.605 178.271C190.233 177.539 189.653 176.933 188.937 176.531C183.265 173.415 178.653 168.675 175.694 162.919C172.735 157.164 171.563 150.655 172.33 144.229C173.096 137.802 175.766 131.752 179.996 126.853C184.226 121.955 189.823 118.433 196.069 116.738C196.855 116.523 197.559 116.079 198.092 115.462C198.624 114.845 198.961 114.083 199.059 113.274L199.179 112.266C199.217 111.971 199.183 111.671 199.081 111.391C198.978 111.111 198.809 110.86 198.589 110.66C198.369 110.459 198.104 110.315 197.816 110.238C197.528 110.162 197.225 110.156 196.935 110.222C188.948 111.846 181.677 115.946 176.153 121.939C170.629 127.931 167.133 135.512 166.163 143.604ZM243.347 152.81C244.294 144.747 242.687 136.59 238.751 129.489C234.816 122.387 228.751 116.701 221.411 113.23L220.754 113.152C220.208 113.086 219.658 113.241 219.226 113.581C218.794 113.921 218.515 114.419 218.45 114.965L218.371 115.622C218.288 116.469 218.452 117.322 218.843 118.078C219.233 118.834 219.834 119.461 220.573 119.883C226.231 123.005 230.829 127.743 233.778 133.493C236.727 139.242 237.894 145.741 237.128 152.157C236.363 158.574 233.701 164.616 229.482 169.51C225.263 174.405 219.68 177.929 213.446 179.632C212.643 179.874 211.926 180.34 211.378 180.975C210.83 181.61 210.475 182.388 210.353 183.218L210.264 183.962C210.229 184.287 210.272 184.616 210.388 184.922C210.505 185.228 210.692 185.501 210.934 185.721C211.176 185.94 211.467 186.1 211.783 186.185C212.099 186.271 212.43 186.28 212.75 186.214C220.708 184.555 227.943 180.438 233.433 174.444C238.923 168.45 242.391 160.882 243.347 152.81Z" fill="white"/>
</g>
<g clip-path="url(#clip1_293_106)">
<path d="M105.067 219.433C143.69 214.149 170.717 178.555 165.433 139.933C160.149 101.31 124.555 74.2834 85.9326 79.5673C47.3099 84.8512 20.2835 120.445 25.5674 159.067C30.8513 197.69 66.4446 224.716 105.067 219.433Z" fill="#26A17B"/>
<path fill-rule="evenodd" clip-rule="evenodd" d="M104.728 154.395L104.726 154.387C104.25 154.487 101.793 154.975 96.2635 155.732C91.849 156.335 88.7234 156.629 87.6235 156.727L87.6253 156.74C70.5295 158.317 57.4406 157.093 56.9563 153.553C56.4725 150.017 68.7517 145.323 85.6413 142.237L87.2223 153.794C88.3433 153.721 91.5509 153.473 95.9479 152.872C101.223 152.15 103.838 151.57 104.326 151.458L102.745 139.906C119.808 138.342 132.866 139.57 133.349 143.102C133.833 146.642 121.583 151.324 104.728 154.395ZM102.581 138.704L101.166 128.363L124.83 125.126L122.672 109.356L58.2424 118.17L60.3998 133.94L84.0633 130.703L85.4775 141.04C66.3668 144.554 52.4253 150.344 53.0495 154.907C53.6738 159.47 68.6576 161.298 88.0104 159.554L92.5442 192.694L109.647 190.354L105.112 157.206C124.192 153.696 138.099 147.915 137.476 143.357C136.852 138.798 121.903 136.965 102.581 138.704Z" fill="white"/>
</g>
<defs>
<clipPath id="clip0_293_106">
<rect width="141.168" height="141.168" fill="white" transform="translate(143.992 70.986) rotate(6.80189)"/>
</clipPath>
<clipPath id="clip1_293_106">
<rect width="141.168" height="141.168" fill="white" transform="translate(16 89.1346) rotate(-7.79018)"/>
</clipPath>
</defs>
</svg>
